<svg width="1064" height="141" viewBox="0 0 1064 141" fill="none" xmlns="http://www.w3.org/2000/svg">
<path d="M293 3.33337C291.267 5.20003 289.133 6.53337 288.2 6.13337C286.2 5.33337 281 8.93337 281 11.0667C281 12.1334 281.4 12.1334 282.467 11.0667C283.533 10 285.133 10 287.267 10.8C292.2 12.6667 299.667 7.73337 299.667 2.53337C299.667 -0.933301 296.733 -0.666635 293 3.33337ZM296.333 5.33337C295.933 6.00003 294.6 6.6667 293.533 6.6667C292.467 6.6667 291.933 6.00003 292.333 5.33337C292.733 4.53337 294.067 4.00003 295.133 4.00003C296.2 4.00003 296.733 4.53337 296.333 5.33337Z" fill="black"/>
<path d="M449.133 3.20021C447.4 5.06688 445.133 6.13354 444.2 5.73354C443.133 5.33354 441 6.13354 439.667 7.33354C436.733 10.0002 435.933 13.2002 438.733 10.9335C439.8 10.0002 441.133 10.0002 442.333 10.6669C445.4 12.6669 447.133 12.2669 451.533 8.53354C455.8 5.06688 457.133 0.000211278 453.933 0.000211278C452.867 0.000211278 450.733 1.46688 449.133 3.20021ZM452.333 5.33354C451.933 6.00021 450.6 6.66688 449.533 6.66688C448.467 6.66688 447.933 6.00021 448.333 5.33354C448.733 4.53354 450.067 4.00021 451.133 4.00021C452.2 4.00021 452.733 4.53354 452.333 5.33354Z" fill="black"/>
<path d="M543.8 3.20002C542.067 5.06669 540.067 6.26669 539.133 5.86669C537.4 5.33336 535.8 6.26669 533 9.86669C531.133 12.2667 531.133 12.4 533.667 10.9334C535.4 10 537.133 10 538.733 10.8C541.4 12.4 548.2 9.20002 549.533 6.00002C551.933 -0.399977 548.6 -1.99998 543.8 3.20002ZM547 5.33336C546.6 6.00002 545.533 6.66669 544.867 6.66669C544.067 6.66669 543.933 6.00002 544.333 5.33336C544.733 4.53336 545.8 4.00002 546.467 4.00002C547.267 4.00002 547.4 4.53336 547 5.33336Z" fill="black"/>
<path d="M408.333 8.53337C390.333 15.0667 382.733 18.6667 380.067 21.6C377.8 24.4 377.8 24.4 380.333 23.6C385 22.2667 418.867 9.33337 420.867 8.26671C423.533 6.80004 424.333 4.00004 422.067 4.00004C421.133 4.13337 415 6.13337 408.333 8.53337Z" fill="black"/>
<path d="M506.333 9.86674C488.6 16.4001 483.533 18.9334 480.867 22.1334C478.467 25.0667 478.733 25.0667 503.533 15.6001C522.067 8.53341 530.333 4.00007 524.333 4.00007C522.867 4.13341 514.733 6.66674 506.333 9.86674Z" fill="black"/>
<path d="M1011.8 8.5335C1009.27 11.2002 1007.53 13.6002 1007.93 14.0002C1008.33 14.4002 1009.4 13.8668 1010.33 12.6668C1012.2 10.4002 1021.67 9.86683 1023 12.0002C1023.4 12.6668 1021.4 14.4002 1018.47 15.8668C1012.87 18.8002 1010.33 21.3335 1013.27 21.3335C1017.27 21.3335 1029 13.2002 1029.8 9.86683C1030.87 5.60016 1030.33 5.06683 1022.73 4.40016C1016.87 3.86683 1015.93 4.1335 1011.8 8.5335Z" fill="black"/>
<path d="M251.667 9.6001C197.8 26.0001 182.6 30.8001 163.667 37.7334C131.4 49.3334 115 56.9334 110.867 61.7334C108.867 64.0001 107.933 66.1334 108.6 66.2668C109.267 66.5334 115.133 64.2668 121.8 61.2001C149.4 48.4001 197.8 31.3334 239 19.8668C258.6 14.4001 263.667 12.1334 263.667 8.4001C263.667 6.26677 262.333 6.26677 251.667 9.6001Z" fill="black"/>
<path d="M328.333 14.5335C308.333 21.8668 306.6 22.6668 303 26.8001C300.333 29.7335 300.333 29.7335 303 28.6668C304.467 28.1335 314.6 24.2668 325.4 20.1335C336.867 15.8668 345.8 11.7335 346.467 10.2668C347.267 9.06679 347.267 8.00012 346.733 8.00012C346.2 8.13345 337.933 10.9335 328.333 14.5335Z" fill="black"/>
<path d="M271 14.6668C269.8 18.5335 271.133 32.6668 275.267 56.5335C278.467 75.6002 278.467 76.6668 276.2 78.2668C272.333 81.0668 266.6 80.4002 262.733 76.5335C260.067 73.8668 259 73.4668 258.2 74.9335C256.333 77.7335 256.867 82.9335 259.133 85.4668C261.933 88.5335 261 92.5335 255.8 99.6002C250.067 107.467 239.667 112.267 228.333 112.267C223.4 112.267 219.8 112.667 220.2 112.933C221.533 114.267 236.467 117.333 241.933 117.333C246.333 117.333 248.6 116.4 252.2 113.333C257 109.067 262.2 99.8668 263.533 92.8002C264.333 89.0668 265 88.5335 270.2 87.8668C282.2 86.2668 283 80.0002 276.467 37.4668C275 28.1335 275 25.7335 276.6 22.5335C278.333 19.2002 278.2 18.6668 275.133 15.3335C271.933 11.8668 271.933 11.8668 271 14.6668Z" fill="black"/>
<path d="M427.133 14.2666C425.8 17.4666 427.133 30 431.267 55.2C434.6 75.7333 434.6 76.5333 432.333 78.2666C428.333 81.0666 422.6 80.4 418.733 76.5333C416.067 73.8666 415 73.4666 414.2 74.9333C412.467 77.6 412.733 81.7333 415.133 85.0666C417.8 88.9333 416.867 92.5333 411.8 99.6C405.933 107.6 395.4 112.4 383.933 112.267C373 112.133 375 113.733 389.133 116.4C395.667 117.6 400.333 117.867 402.467 117.067C409.8 114.4 417.267 104 419.4 93.7333C420.333 89.3333 420.867 88.6666 424.733 88.5333C431.8 88.1333 435.4 84.9333 436.467 77.7333C437.4 71.7333 436.733 65.2 432.6 37.3333C431.133 27.4666 431.133 25.4666 432.867 22.4C434.867 19.0666 434.733 18.6666 431.4 15.4666C428.333 12.2666 427.933 12.1333 427.133 14.2666Z" fill="black"/>
<path d="M350.467 20.6668C345.533 26.2668 345.133 27.6002 349.267 24.8002C352.6 22.4002 360.467 22.0002 361.667 24.0002C362.067 24.8002 360.6 26.4002 358.333 27.7335C356.067 28.9335 353.133 30.6668 351.933 31.6002C349.933 33.0668 349.933 33.2002 352.467 33.3335C357.267 33.3335 368.333 25.2002 368.733 21.2002C369 18.5335 368.467 17.4668 366.067 16.8002C358.733 14.9335 354.733 15.8668 350.467 20.6668Z" fill="black"/>
<path d="M288.467 20.4C287.133 25.6 287.533 32.5333 290.467 48.8C292.067 57.6 294.067 69.7333 295 76C296.333 85.2 296.733 86.6666 297.667 83.6C298.733 79.4666 297.933 69.2 294.2 45.3333C292.867 36.1333 291.667 26.4 291.667 23.7333C291.667 18.1333 289.667 16 288.467 20.4Z" fill="black"/>
<path d="M444.6 20.2668C443 26.0001 443.667 33.8668 448.2 60.6668C451.533 81.2001 452.867 86.4001 453.533 83.0668C454.467 79.2001 451.8 53.4668 448.867 38.1334C448.2 34.5334 447.667 29.2001 447.667 26.1334C447.667 19.3334 445.8 15.7334 444.6 20.2668Z" fill="black"/>
<path d="M539.8 20.6667C537.667 25.4667 538.467 34.4001 543 58.9334C544.867 68.6667 546.333 79.3334 546.333 82.6667C546.333 87.0667 546.733 88.1334 547.667 86.6667C549.8 83.4667 549.267 72.9334 545.667 48.8001C543.933 36.2667 542.2 23.8667 541.933 21.3334L541.533 16.6667L539.8 20.6667Z" fill="black"/>
<path d="M404.6 20.9335C404.067 21.3335 403.667 22.8001 403.667 24.1335C403.667 26.9335 400.2 30.6668 397.533 30.6668C396.333 30.6668 395.667 29.3335 395.667 26.9335C395.667 24.1335 395.4 23.7335 394.333 25.3335C390.733 30.9335 394.733 39.6001 399.4 36.2668C402.2 34.2668 403.4 33.7335 407.933 32.8001C410.733 32.1335 411.8 30.9335 412.467 27.3335C413.4 21.8668 412.467 18.0001 411 22.0001C410.467 23.4668 409.8 25.4668 409.533 26.5335C409.133 28.0001 408.6 28.0001 407 26.6668C405.8 25.6001 405.267 23.8668 405.667 22.5335C406.6 19.8668 406.067 19.3335 404.6 20.9335Z" fill="black"/>
<path d="M505.533 24C504.067 31.2 497.8 32.9333 496.733 26.4C496.2 24 495.933 24.4 495.133 28.4C494.2 32.4 494.467 34 496.2 35.7333C498.2 37.7333 498.6 37.7333 502.2 35.6C504.333 34.4 507.267 33.3333 508.867 33.3333C510.333 33.3333 512.2 32.1333 513 30.8C514.733 27.3333 514.733 19.6 513 20.6666C512.2 21.2 511.933 22.6666 512.333 24C512.733 25.4666 512.333 26.6666 511.133 27.0666C508.733 28 506.867 25.6 507.4 22.2666C508.067 18.2666 506.333 19.7333 505.533 24Z" fill="black"/>
<path d="M331.667 35.2001C331.667 36.9334 332.6 39.0668 333.8 40.1334C337.267 42.9334 339.667 48.9334 339.8 54.9334C339.8 60.1334 339.933 60.4001 341.133 57.3334C343.133 52.5334 341.8 44.9334 337.8 38.0001C333.8 31.3334 331.667 30.4001 331.667 35.2001Z" fill="black"/>
<path d="M470.067 37.7333C468.733 41.4667 468.333 44.2667 469.133 45.6C470.067 47.3333 469.133 48.8 465.4 51.8667C462.6 54.1333 461.133 56 461.933 56C462.867 56 465.667 54.1333 468.067 52C470.733 49.7333 474.2 48 476.2 48C480.2 48 481.667 45.4667 480.467 40.6667C479.667 37.6 474.867 32 473 32C472.6 32 471.267 34.5333 470.067 37.7333ZM472.467 42.2667C471.133 43.6 469.933 41.6 471.133 39.8667C471.933 38.4 472.2 38.4 472.733 39.8667C473 40.8 472.867 41.8667 472.467 42.2667ZM479.4 42.4C479.667 43.3333 478.733 44 477.133 44C475.267 44 474.6 43.3333 475.267 42C476.067 39.7333 478.6 40 479.4 42.4Z" fill="black"/>
<path d="M248.333 37.3333C246.6 43.2 241.267 44.6666 239.933 39.7333C239.267 36.8 239.133 36.8 238.2 40.5333C236.2 47.7333 241.133 51.7333 246.733 47.3333C248.2 46.4 249.933 45.7333 250.733 46.1333C251.667 46.4 253.133 46.1333 254.067 45.4666C256.2 44.1333 258.467 34.9333 257 34C256.333 33.6 255.667 34.6666 255.4 36.2666C254.733 40.9333 250.6 40.9333 250.067 36.4C249.667 32.6666 249.667 32.6666 248.333 37.3333Z" fill="black"/>
<path d="M1025.27 35.6002C1024.47 36.9336 1023.53 40.5336 1023 43.7336L1022.07 49.4669L1018.33 43.6002C1015.27 38.6669 1012.2 36.0002 1009.53 36.0002C1009.27 36.0002 1009 37.6002 1009 39.4669C1009 42.0002 1009.93 43.3336 1013 44.4002C1015.67 45.4669 1017.8 47.6002 1019.27 50.9336C1020.47 53.6002 1021.93 55.6002 1022.33 55.3336C1022.87 54.9336 1023.67 51.6002 1024.07 47.8669C1025 39.8669 1027.13 36.5336 1029.8 38.8002C1031.27 40.0002 1031.8 39.8669 1032.47 38.2669C1034.2 33.4669 1027.53 31.2002 1025.27 35.6002Z" fill="black"/>
<path d="M521.667 43.2001C520.867 47.2001 521.533 52.0001 524.867 63.8667C527.133 72.4001 529 80.1334 529 80.9334C529 84.9334 518.2 80.6667 515.4 75.6001C514.6 74.0001 512.2 66.0001 510.333 58.0001C507.133 45.0667 506.6 43.8667 505.667 47.3334C505 49.8667 505.4 56.1334 506.867 64.6667L509.133 78.0001L505 81.6001C499.8 86.4001 494.467 86.4001 490.2 81.8667C487.4 78.9334 486.867 76.8001 486.333 65.6001C485.667 52.9334 485.533 52.8001 483.933 58.0001C482.6 62.4001 480.733 64.2667 474.067 68.6667C464.733 74.6667 459.4 81.4667 459.933 86.6667C460.333 89.7334 460.867 90.0001 468.2 90.4001C474.6 90.6667 476.867 90.2667 479.8 88.1334C484.2 84.8001 485 84.6667 485 87.2001C485 90.2667 491.667 94.6667 496.2 94.6667C500.733 94.6667 504.6 91.8667 508.2 86.2667L510.467 82.5334L513 85.7334C516.067 89.6001 522.2 92.4001 526.467 91.7334C530.333 91.2001 533.533 82.6667 532.333 75.4667C531.667 70.8001 526.333 50.0001 523.667 41.3334C522.733 38.2667 522.6 38.4001 521.667 43.2001ZM483.667 73.8667C483.667 76.1334 483 78.8001 482.067 79.7334C480.2 81.6001 465 81.8667 465 80.0001C465 79.3334 467.933 77.2001 471.4 75.4667C475 73.7334 478.6 71.3334 479.533 70.1334C481.933 67.2001 483.667 68.6667 483.667 73.8667Z" fill="black"/>
<path d="M1046.07 44.2667C1045.8 51.7334 1046.2 53.6 1049.4 56.1334C1052.73 58.6667 1059.13 71.6 1060.47 78.5334C1061.27 82.5334 1061.27 82.6667 1056.2 82.6667C1049.8 82.6667 1042.73 78.5334 1041.93 74.4C1041.53 71.6 1041.27 71.7334 1039.27 76.1334C1036.07 83.2 1033.93 84.5334 1029.4 82.4C1026.73 81.0667 1025.53 79.3334 1025 76L1024.2 71.3334L1021.27 76.9334C1017.8 83.4667 1015 85.3334 1008.47 85.3334C1001.4 85.3334 999.533 84.2667 1000.47 80.5334C1001.4 76.8 1000.73 76.5334 996.6 79.3334C990.2 83.4667 955.667 89.8667 914.333 94.6667C862.467 100.533 836.2 101.867 771 101.867C692.333 101.867 646.2 99.0667 611.4 92C595.133 88.6667 591.933 87.0667 585.667 79.3334C581.8 74.6667 579.8 73.3334 576.6 73.3334C571.133 73.3334 563.667 81.2 563.667 87.0667C563.667 92.6667 553.8 102 541.8 107.733C536.733 110.133 532.867 112.4 533.267 112.667C534.6 114 549.533 110.533 553.8 107.867C557.533 105.6 562.6 99.4667 565.8 93.6C565.8 93.4667 568.6 94.5334 571.8 96C579 99.2 583.133 99.3334 584.733 96.4C585.933 94.4 586.733 94.4 594.6 97.0667C610.733 102.267 639.133 106.267 684.333 109.6C713.933 111.733 824.467 111.733 851 109.6C914.2 104.4 973.933 95.8667 990.733 89.4667C993.933 88.2667 995.133 88.4 997.933 90.6667C1002.33 94.1334 1009.8 94.1334 1015.53 90.5334C1019.67 88 1020.2 88 1024.33 89.8667C1030.73 92.9334 1033.93 92.5334 1037.13 88.1334L1039.93 84.2667L1045.8 87.6C1053.13 91.7334 1059.53 91.3334 1062.07 86.6667C1065.4 80.2667 1063.27 68.9334 1055.67 53.7334C1051.93 46.1334 1048.33 40 1047.67 40C1046.87 40 1046.2 42 1046.07 44.2667ZM577.667 82.1334C581.533 86.2667 581.8 88 579 88C575.667 88 569 84.1334 569 82.1334C569 77.6 573.4 77.6 577.667 82.1334Z" fill="black"/>
<path d="M366.867 44.0001C364.2 45.0667 359.667 50.1334 359.667 52.1334C359.667 52.5334 362.6 52.6667 366.2 52.2667C371.4 51.8667 374.333 52.4001 380.6 55.3334L388.333 59.0667L377.4 60.8001C363 63.2001 359.933 64.5334 357.267 69.6001C352.733 78.0001 348.467 81.3334 341.8 81.3334C335.8 81.3334 330.333 78.1334 330.333 74.6667C330.333 72.0001 327.933 73.4667 326.467 77.0667C325.133 80.2667 325.4 81.8667 328.467 88.5334C331.267 94.6667 331.667 96.9334 330.6 99.3334C327.267 106.533 303.667 118.4 281 124.133C229.8 137.333 146.467 132.933 92.4666 114.4C83.9332 111.467 68.0666 104 58.9999 98.5334C54.3332 95.8667 53.9332 95.7334 55.6666 98.0001C63.1332 107.867 75.5332 116.4 91.9332 122.667C103.267 127.067 134.6 134.667 154.2 137.733C179.267 141.6 234.333 141.867 256.2 138.267C282.6 133.733 308.467 124.667 323 114.667C329.8 110 334.2 102.267 334.333 95.0667C334.333 91.0667 334.6 90.9334 341.133 90.0001C345 89.4667 349.267 87.8667 351.267 86.1334C354.733 83.2001 354.733 83.2001 359.533 85.6001C366.2 89.0667 371.133 88.6667 373.8 84.6667C376.467 80.5334 375.533 74.1334 371.533 69.8667C369 67.2001 369 66.9334 371.267 65.8667C372.6 65.3334 383.533 64.8001 395.533 64.6667C412.467 64.4001 417.533 64.0001 418.467 62.5334C420.6 59.2001 419.667 57.3334 416.067 57.3334C410.6 57.3334 400.333 54.2667 388.2 48.9334C375.667 43.4667 370.733 42.4001 366.867 44.0001ZM367.933 74.2667C370.2 76.2667 371.267 80.0001 369.533 80.0001C367 80.0001 359.667 75.4667 359.667 73.8667C359.667 71.3334 364.867 71.4667 367.933 74.2667Z" fill="black"/>
<path d="M83.6666 46C82.8666 47.0667 81.7999 50.4 81.3999 53.3333C80.4666 59.8667 78.9999 61.0667 76.8666 57.0667C74.5999 52.5333 70.1999 48 68.0666 48C67.1333 48 66.3333 49.4667 66.3333 51.2C66.3333 53.6 67.3999 54.8 70.4666 55.8667C73.3999 56.8 75.1333 58.8 76.5999 62.6667C77.7999 65.6 79.1333 68 79.6666 68C80.1999 68 81.1333 64.9333 81.5333 61.0667C82.8666 51.6 84.3333 48.9333 87.6666 50.6667C89.9333 51.8667 90.3333 51.6 90.3333 49.4667C90.3333 45.7333 85.7999 43.4667 83.6666 46Z" fill="black"/>
<path d="M312.333 59.9999C307.933 64.7999 313.533 70.3999 318.333 65.9999C321.8 62.9332 321.667 62.1332 317.8 59.5999C314.867 57.5999 314.467 57.5999 312.333 59.9999Z" fill="black"/>
<path d="M196.6 60.1334C195.4 60.8001 193.4 63.2001 192.333 65.3334L190.333 69.2001L197.4 68.4001C202.6 67.8667 206.333 68.5334 212.067 70.6667C216.2 72.2667 219.667 73.8667 219.667 74.4001C219.667 75.7334 202.6 81.6001 196.6 82.2667C190.867 83.0667 184.333 79.6001 185.533 76.5334C186.467 74.1334 183.133 74.1334 181 76.5334C179 78.9334 161.8 84.6667 150.6 86.6667C135.4 89.3334 108.067 90.5334 90.3333 89.2001C68.7333 87.7334 61.2667 85.0667 52.3333 76.0001C47.8 71.4667 44.7333 69.3334 42.3333 69.3334C37.8 69.3334 30.6 76.6667 29.5333 82.5334C28.2 88.9334 19.8 96.8001 8.46665 102.133C-0.46668 106.267 -0.733347 106.533 3.66665 106.667C14.4667 106.667 25.2667 100.533 29.8 91.8667L31.6667 88.1334L37.4 90.6667C44.3333 93.8667 49.8 94.0001 51.4 91.2001C52.4667 89.2001 53 89.2001 56.6 91.2001C78.7333 102.533 158.467 98.2667 179.267 84.5334C182.333 82.6667 182.733 82.8001 187.133 86.5334C189.667 88.8001 193 90.6667 194.6 90.6667C196.2 90.6667 203.667 87.4667 211.4 83.6001L225.4 76.6667L238.6 76.9334C251.133 77.2001 251.933 77.0667 252.867 74.2667C253.533 72.6667 253.8 70.9334 253.533 70.5334C253.267 70.0001 248.067 69.3334 242.067 69.0667C233.267 68.5334 228.6 67.4667 219.267 63.6001C207.533 58.6667 201 57.6001 196.6 60.1334ZM43.2667 77.6001C46.4667 80.5334 47.4 84.0001 45 84.0001C42.4667 84.0001 34.3333 80.1334 34.3333 79.0667C34.3333 77.4667 37.2667 74.6667 38.8667 74.6667C39.5333 74.6667 41.5333 76.0001 43.2667 77.6001Z" fill="black"/>
<path d="M385.933 80.9333C384.2 82.5333 385 83.9999 387.667 83.9999C391.133 83.9999 391 85.8666 387.533 90.5333C383.667 95.7333 384.6 99.1999 389.8 99.7333C392.733 99.9999 395.133 99.0666 398.2 96.6666C403.667 91.9999 403.533 89.9999 398.067 93.3333C389.933 98.2666 385.267 95.8666 390.2 89.1999C394.067 83.9999 393.933 79.9999 389.933 79.9999C388.2 79.9999 386.333 80.3999 385.933 80.9333Z" fill="black"/>
<path d="M225.667 86.5334C225.267 87.3334 226.467 88.6667 228.467 89.3334C231.667 90.6667 231.8 90.9334 230.067 93.0667C225.933 97.6001 224.733 101.333 226.467 103.467C228.867 106.4 233.667 105.733 238.333 101.867C243.267 97.6001 242.867 96.5334 237.533 99.3334C229.133 103.733 226.067 101.067 231 93.8667C232.867 91.0667 234.2 88.2667 233.933 87.4667C233.267 85.4667 226.867 84.8001 225.667 86.5334Z" fill="black"/>
<path d="M1045.53 104.133C1043 106.933 1043.13 106.933 1046.2 109.467C1049.13 111.867 1049.53 111.867 1051.8 109.867C1055 106.933 1055 104.4 1051.8 102.667C1048.33 100.933 1048.47 100.933 1045.53 104.133Z" fill="black"/>
<path d="M203 106.533C196.333 109.6 188.067 116 190.6 116C193.267 116 211.4 106.533 212.067 104.8C213.267 101.867 212.2 102.133 203 106.533Z" fill="black"/>
<path d="M169 106.667C167.667 109.2 167.4 109.2 164.2 107.067C161 105.067 160.733 105.067 157.933 107.733L155.133 110.667L158.067 113.6L161 116.533L163.8 113.733C166.6 111.067 166.867 110.933 170.067 113.067C173.133 115.067 173.533 115.067 175.933 112.133C178.2 109.2 178.2 108.8 176.2 106.533C173.267 103.333 170.733 103.333 169 106.667Z" fill="black"/>
<path d="M1029.67 105.467C1029.13 106.267 1027.93 106.533 1026.87 106.133C1025.8 105.733 1024.6 106.267 1024.2 107.333C1023.67 108.533 1021.67 109.333 1019.4 109.333C1013.27 109.333 1009 112.267 998.467 124C993 130.133 989.667 134.4 991.133 133.6C995.267 131.2 999 127.6 1002.87 122.4C1006.47 117.6 1012.07 114.667 1017.67 114.667C1019.4 114.667 1021.4 113.733 1022.33 112.667C1023.27 111.6 1025 110.667 1026.33 110.667C1027.53 110.667 1029.27 109.2 1030.07 107.333C1031.67 104 1031.27 102.667 1029.67 105.467Z" fill="black"/>
<path d="M37.9332 110.267C32.9999 112.934 28.3332 116.134 27.5332 117.6C26.4665 119.467 28.8665 118.667 37.5332 114.4C43.7999 111.334 49.2665 108 49.5332 107.067C50.5999 104.267 47.5332 105.067 37.9332 110.267Z" fill="black"/>
<path d="M472.733 110C467.8 112.533 463.133 115.867 462.333 117.333C461.133 119.733 462.467 119.333 471.267 114.8C481.8 109.6 487.4 105.2 483.533 105.333C482.467 105.467 477.667 107.467 472.733 110Z" fill="black"/>
<path d="M333.667 118.533C326.867 121.733 317.267 129.333 320.067 129.333C322.733 129.333 342.067 118.533 342.733 116.8C343.8 114 343.133 114.133 333.667 118.533Z" fill="black"/>
<path d="M579.533 119.333C571.533 123.467 566.6 127.333 567.8 128.533C568.733 129.467 589.533 118.133 590.067 116.267C590.733 113.867 589.267 114.267 579.533 119.333Z" fill="black"/>
<path d="M1053.67 120.933C1047 124.267 1041 128.933 1041 130.667C1041 132.133 1062.2 120.8 1063 118.933C1063.93 116.533 1061.13 117.067 1053.67 120.933Z" fill="black"/>
</svg>
